<svg id="Capa_1" enable-background="new 0 0 512 512" height="512" viewBox="0 0 512 512" width="512" xmlns="http://www.w3.org/2000/svg"><g><g><path d="m256 0c-140.7 0-256 115.3-256 256s115.3 256 256 256 256-115.3 256-256-115.3-256-256-256z" fill="#ff7f40"/></g><path d="m512 256c0 140.7-115.3 256-256 256v-512c140.7 0 256 115.3 256 256z" fill="#f25a3c"/><g><path d="m181 391c-41.4 0-75-33.6-75-75v-120c0-41.4 33.6-75 75-75s75 33.6 75 75v15h-30v-15c0-24.8-20.2-45-45-45s-45 20.2-45 45v120c0 24.8 20.2 45 45 45s45-20.2 45-45v-15h30v15c0 41.4-33.6 75-75 75z" fill="#f3f5f9"/></g><path d="m331 121c-24.8 0-45 20.2-45 45s20.2 45 45 45 45-20.2 45-45-20.2-45-45-45zm0 60c-8.3 0-15-6.7-15-15s6.7-15 15-15 15 6.7 15 15-6.7 15-15 15z" fill="#e1e6f0"/></g></svg>