<svg height="512" viewBox="0 0 24 24" width="512" xmlns="http://www.w3.org/2000/svg"><g id="tilde" fill="none" fill-rule="evenodd"><path id="Fill-42" d="m15.499 14.001c-1.638 0-2.969-.799-4.256-1.571-1.224-.735-2.381-1.429-3.742-1.429-1.541 0-3.033.602-4.694 1.895-.217.169-.532.13-.702-.088-.169-.218-.13-.532.088-.702 1.846-1.436 3.533-2.105 5.308-2.105 1.638 0 2.969.799 4.256 1.571 1.224.735 2.381 1.429 3.742 1.429 1.541 0 3.033-.602 4.694-1.895.216-.17.532-.13.702.088.169.218.13.532-.088.702-1.846 1.436-3.533 2.105-5.308 2.105" fill="rgb(0,0,0)"/></g></svg>