<svg id="Capa_1" enable-background="new 0 0 512 512" height="512" viewBox="0 0 512 512" width="512" xmlns="http://www.w3.org/2000/svg" xmlns:xlink="http://www.w3.org/1999/xlink"><linearGradient id="SVGID_1_" gradientUnits="userSpaceOnUse" x1="128" x2="128" y1="512" y2="0"><stop offset="0" stop-color="#ff5900"/><stop offset="1" stop-color="#ffde00"/></linearGradient><linearGradient id="SVGID_2_" gradientUnits="userSpaceOnUse" x1="384" x2="384" y1="512" y2="0"><stop offset="0" stop-color="#ffedaa"/><stop offset="1" stop-color="#ffffe4"/></linearGradient><g><path d="m256 101v310c-85.467 0-155-69.532-155-155s69.533-155 155-155zm-186 155c0-8.284-6.716-15-15-15h-40c-8.284 0-15 6.716-15 15 0 8.284 6.716 15 15 15h40c8.284 0 15-6.716 15-15zm-15.212 133.49 34.641-20c7.174-4.142 9.632-13.316 5.49-20.49-4.142-7.174-13.316-9.632-20.49-5.49l-34.641 20c-7.174 4.142-9.632 13.316-5.49 20.49 4.142 7.174 13.316 9.632 20.49 5.49zm93.702 82.722 20-34.641c4.142-7.174 1.684-16.348-5.49-20.49-7.174-4.142-16.348-1.684-20.49 5.49l-20 34.641c-4.142 7.174-1.684 16.348 5.49 20.49 7.174 4.142 16.348 1.684 20.49-5.49zm107.51-472.212c-8.284 0-15 6.716-15 15v40c0 8.284 6.716 15 15 15zm0 442c-8.284 0-15 6.716-15 15v40c0 8.284 6.716 15 15 15zm-93-347.081c7.174-4.142 9.632-13.316 5.49-20.49l-20-34.641c-4.142-7.174-13.316-9.632-20.49-5.49-7.174 4.142-9.632 13.316-5.49 20.49l20 34.641c4.142 7.174 13.316 9.632 20.49 5.49zm-68.081 68.081c4.142-7.174 1.684-16.348-5.49-20.49l-34.641-20c-7.174-4.142-16.348-1.684-20.49 5.49-4.142 7.174-1.684 16.348 5.49 20.49l34.641 20c7.174 4.142 16.348 1.684 20.49-5.49z" fill="url(#SVGID_1_)"/><path d="m497 271h-40c-8.284 0-15-6.716-15-15 0-8.284 6.716-15 15-15h40c8.284 0 15 6.716 15 15 0 8.284-6.716 15-15 15zm-59.429-102.51 34.641-20c7.174-4.142 9.632-13.316 5.49-20.49-4.142-7.174-13.316-9.632-20.49-5.49l-34.641 20c-7.174 4.142-9.632 13.316-5.49 20.49 4.142 7.174 13.316 9.632 20.49 5.49zm-68.081-79.061 20-34.641c4.142-7.174 1.684-16.348-5.49-20.49-7.174-4.142-16.348-1.684-20.49 5.49l-20 34.641c-4.142 7.174-1.684 16.348 5.49 20.49 7.174 4.142 16.348 1.684 20.49-5.49zm14.51 388.273c7.174-4.142 9.632-13.316 5.49-20.49l-20-34.641c-4.142-7.174-13.316-9.632-20.49-5.49-7.174 4.142-9.632 13.316-5.49 20.49l20 34.641c4.142 7.174 13.316 9.632 20.49 5.49zm93.702-93.702c4.142-7.174 1.684-16.348-5.49-20.49l-34.641-20c-7.174-4.142-16.348-1.684-20.49 5.49-4.142 7.174-1.684 16.348 5.49 20.49l34.641 20c7.174 4.142 16.348 1.684 20.49-5.49zm-221.702-283v310c85.468 0 155-69.532 155-155s-69.532-155-155-155zm0-101v70c8.284 0 15-6.716 15-15v-40c0-8.284-6.716-15-15-15zm0 442v70c8.284 0 15-6.716 15-15v-40c0-8.284-6.716-15-15-15z" fill="url(#SVGID_2_)"/></g></svg>