<svg height="512pt" viewBox="0 -8 512 512" width="512pt" xmlns="http://www.w3.org/2000/svg"><path d="m94.785156 269.210938c0-88.859376 72.039063-160.898438 160.902344-160.898438 88.859375 0 160.898438 72.039062 160.898438 160.898438v83.5h-321.800782zm0 0" fill="#fdc202"/><g fill="#f0a70a"><path d="m273.972656 109.335938c-80.253906 9.078124-142.617187 77.199218-142.617187 159.875v83.503906h-36.570313v-83.503906c0-88.859376 72.039063-160.898438 160.902344-160.898438 6.183594 0 12.285156.34375 18.285156 1.023438zm0 0"/><path d="m255.6875 0c-4.328125 0-7.835938 3.507812-7.835938 7.835938v36.21875c0 4.328124 3.507813 7.839843 7.835938 7.839843s7.835938-3.511719 7.835938-7.839843v-36.21875c0-4.328126-3.507813-7.835938-7.835938-7.835938zm0 0"/><path d="m162.78125 30.648438c-1.480469-4.066407-5.980469-6.164063-10.042969-4.683594-4.066406 1.480468-6.164062 5.976562-4.683593 10.042968l12.386718 34.039063c1.480469 4.066406 5.980469 6.160156 10.042969 4.683594 4.066406-1.480469 6.164063-5.980469 4.683594-10.046875zm0 0"/><path d="m77.507812 85.832031c-2.785156-3.3125-7.726562-3.746093-11.039062-.964843-3.316406 2.78125-3.75 7.726562-.96875 11.039062l23.28125 27.746094c1.550781 1.847656 3.769531 2.800781 6.007812 2.800781 6.59375 0 10.292969-7.757813 6-12.875zm0 0"/><path d="m52.742188 182.574219-31.367188-18.109375c-3.75-2.164063-8.542969-.878906-10.703125 2.867187-2.164063 3.75-.882813 8.542969 2.867187 10.707031l31.367188 18.109376c3.753906 2.164062 8.542969.875 10.703125-2.871094 2.164063-3.746094.878906-8.539063-2.867187-10.703125zm0 0"/><path d="m358.636719 25.964844c-4.070313-1.480469-8.566407.621094-10.042969 4.6875l-12.390625 34.035156c-1.480469 4.066406.621094 8.5625 4.683594 10.042969 4.066406 1.480469 8.566406-.613281 10.046875-4.683594l12.386718-34.035156c1.480469-4.070313-.617187-8.566407-4.683593-10.046875zm0 0"/><path d="m444.90625 84.867188c-3.316406-2.78125-8.257812-2.347657-11.039062.964843l-23.28125 27.746094c-4.292969 5.117187-.597657 12.875 5.996093 12.875 2.238281 0 4.457031-.953125 6.007813-2.800781l23.28125-27.746094c2.78125-3.3125 2.351562-8.257812-.964844-11.039062zm0 0"/><path d="m500.703125 167.332031c-2.164063-3.746093-6.957031-5.03125-10.703125-2.867187l-31.367188 18.109375c-3.75 2.164062-5.03125 6.957031-2.867187 10.703125 2.164063 3.753906 6.957031 5.03125 10.703125 2.871094l31.367188-18.109376c3.746093-2.164062 5.03125-6.957031 2.867187-10.707031zm0 0"/></g><path d="m448.441406 224.597656c-25.382812-.199218-47.371094 14.367188-57.921875 35.617188-.625 1.253906-2.296875 1.453125-3.226562.40625-7.425781-8.34375-18.238281-13.605469-30.285157-13.605469-22.386718 0-40.535156 18.148437-40.535156 40.535156 0 2.265625.191406 4.488281.554688 6.648438.195312 1.195312-.710938 2.277343-1.921875 2.277343h-58.898438c-15.328125 0-28.28125 12.019532-28.703125 27.339844-.433594 15.894532 12.320313 28.917969 28.117188 28.917969h192.304687c35.03125 0 63.496094-28.109375 64.0625-63.003906.574219-35.382813-28.164062-64.855469-63.546875-65.132813zm0 0" fill="#a0cafe"/><path d="m512 288.671875c0 35.375-28.691406 64.066406-64.078125 64.066406h-192.296875c-15.539062 0-28.128906-12.601562-28.128906-28.125 0-4.515625 1.066406-8.777343 2.957031-12.558593 1.285156.1875 2.613281.28125 3.949219.28125h192.300781c35.386719 0 64.078125-28.679688 64.078125-64.070313 0-2.578125-.15625-5.128906-.460938-7.636719 13.289063 11.734375 21.679688 28.910156 21.679688 48.042969zm0 0" fill="#81b8fd"/><path d="m57.21875 264.902344c24.753906-1.15625 46.394531 12.675781 56.65625 33.1875.609375 1.226562 2.261719 1.480468 3.175781.460937 6.960938-7.78125 17.074219-12.683593 28.335938-12.683593 21 0 38.019531 17.023437 38.019531 38.023437 0 2.082031-.171875 4.125-.496094 6.117187-.195312 1.183594.71875 2.257813 1.921875 2.257813h164.046875c14.792969 0 27.257813 12.105469 26.976563 26.894531-.269531 14.335938-11.980469 25.875-26.378907 25.875h-289.375c-34.132812 0-61.621093-28.457031-60.0312495-62.945312 1.4179685-30.769532 26.3789065-55.75 57.1484375-57.1875zm0 0" fill="#c0dbff"/><path d="m375.859375 358.652344c0 14.574218-11.816406 26.382812-26.378906 26.382812h-289.382813c-33.183594 0-60.097656-26.90625-60.097656-60.097656 0-31.023438 23.507812-56.546875 53.671875-59.753906-4.230469 8.230468-6.625 17.5625-6.625 27.457031 0 33.183594 26.90625 60.097656 60.097656 60.097656h268.039063c.449218 1.902344.675781 3.875.675781 5.914063zm0 0" fill="#a0cafe"/><path d="m348.609375 332.269531c-32.8125 0-64.175781 15.621094-76.195313 45.496094-.742187 1.84375-3.109374 2.40625-4.605468 1.097656-33.65625-29.421875-87.839844-.679687-80.613282 44.601563.289063 1.800781-1.066406 3.4375-2.886718 3.4375h-36.953125c-19.109375 0-35.113281 15.644531-34.75 34.75.355469 18.515625 15.476562 33.417968 34.078125 33.417968h199.25c106.964844 0 113.855468-162.800781 2.675781-162.800781zm0 0" fill="#e6f1ff"/><path d="m412.765625 360.886719c-10.167969-4.355469-22.101563-6.84375-35.828125-6.84375-32.808594 0-64.171875 15.621093-76.1875 45.503906-.742188 1.835937-3.113281 2.402344-4.609375 1.085937-33.652344-29.421874-87.847656-.679687-80.617187 44.613282.292968 1.796875-1.066407 3.4375-2.882813 3.4375h-36.957031c-19.109375 0-35.113282 15.628906-34.75 34.738281.074218 4.035156.859375 7.898437 2.226562 11.472656-16.945312-1.742187-30.214844-15.902343-30.550781-33.246093-.363281-19.109376 15.632813-34.75 34.75-34.75h36.945313c1.828124 0 3.175781-1.628907 2.894531-3.4375-7.230469-45.28125 46.953125-74.023438 80.605469-44.601563 1.496093 1.316406 3.867187.75 4.609374-1.085937 12.027344-29.882813 43.378907-45.503907 76.199219-45.503907 29.683594 0 50.953125 11.609375 64.152344 28.617188zm0 0" fill="#d9e9ff"/></svg>